<svg fill="none" height="24" viewBox="0 0 24 24" width="24" xmlns="http://www.w3.org/2000/svg"><path clip-rule="evenodd" d="m4.6138 8.54479-.4263 1.70521h-2.1875c-.41421 0-.75.3358-.75.75s.33579.75.75.75h20c.4142 0 .75-.3358.75-.75s-.3358-.75-.75-.75h-2.1875l-.4263-1.70521c-.5457-2.18268-.8185-3.27402-1.6323-3.90941-.8138-.63538-1.9387-.63538-4.1886-.63538h-3.1306c-2.2499 0-3.37482 0-4.18861.63538-.81378.63539-1.08662 1.72673-1.63229 3.90941zm1.8862 12.45521c1.62316 0 2.98826-1.1049 3.38417-2.6037l1.10963-.5548c.6334-.3167 1.379-.3167 2.0124 0l1.1096.5548c.3959 1.4988 1.761 2.6037 3.3842 2.6037 1.933 0 3.5-1.567 3.5-3.5s-1.567-3.5-3.5-3.5c-1.6601 0-3.0502 1.1558-3.4097 2.7065l-.4132-.2066c-1.0558-.5279-2.2984-.5279-3.3542 0l-.41323.2066c-.35944-1.5507-1.74958-2.7065-3.40967-2.7065-1.933 0-3.5 1.567-3.5 3.5s1.567 3.5 3.5 3.5z" fill="#1c274c" fill-rule="evenodd"/></svg>